# xmcd CD database file
#
# Track frame offsets:
#	150
#	26550
#	40347
#	53447
#	68052
#	86402
#	106404
#	126235
#	151102
#	168172
#	193717
#	212367
#	234859
#
# Disc length: 3415 seconds
#
# Revision: 1
# Processed by: cddbd v1.5.2PL0 Copyright (c) Steve Scherf et al.
# Submitted via: CDex 1.51
#
DISCID=980d550d
DTITLE=Patti Labelle - The Spirit's In It - I'm In Love Again - Patti [1998 Remaster] CD1
DYEAR=1998
DGENRE=Soul/R&B
TTITLE0=The Spirit's In It
TTITLE1=Here You Come Again
TTITLE2=Love Lives
TTITLE3=I Fell In Love Without Warning
TTITLE4=Boats Against The Current
TTITLE5=Rockin' Pneumonia And The Boogie Woogie Flu
TTITLE6=Family
TTITLE7=Shoot Him On Sight
TTITLE8=Over The Rainbow
TTITLE9=I'm In Love Again
TTITLE10=Lover Man (Oh Where Can You Be?)
TTITLE11=Love, Need And Want You
TTITLE12=If Only You Knew
EXTD=YEAR: 1998
EXTT0=
EXTT1=
EXTT2=
EXTT3=
EXTT4=
EXTT5=
EXTT6=
EXTT7=
EXTT8=
EXTT9=
EXTT10=
EXTT11=
EXTT12=
PLAYORDER=
